<?xml version="1.0" standalone="no"?>
<!DOCTYPE svg PUBLIC "-//W3C//DTD SVG 20010904//EN"
 "http://www.w3.org/TR/2001/REC-SVG-20010904/DTD/svg10.dtd">
<svg version="1.0" xmlns="http://www.w3.org/2000/svg"
 width="1952.000000pt" height="1952.000000pt" viewBox="0 0 1952.000000 1952.000000"
 preserveAspectRatio="xMidYMid meet">
<metadata>
Created by potrace 1.14, written by Peter Selinger 2001-2017
</metadata>
<g transform="translate(0.000000,1952.000000) scale(0.100000,-0.100000)"
fill="#000000" stroke="none">
<path d="M7302 9853 l3 -5908 173 -3 172 -2 0 5910 0 5910 -175 0 -175 0 2
-5907z"/>
<path d="M9352 9835 l3 -2970 583 -3 582 -2 0 1202 c1 1142 2 1202 18 1182 10
-11 386 -529 837 -1151 450 -623 822 -1130 826 -1128 3 3 379 519 835 1149
l829 1144 5 -1197 5 -1196 583 -3 582 -2 0 2971 0 2971 -222 -305 c-123 -167
-761 -1043 -1418 -1945 -657 -902 -1198 -1640 -1202 -1639 -4 1 -643 873
-1419 1937 -775 1064 -1415 1939 -1420 1945 -5 5 -8 -1117 -7 -2960z"/>
<path d="M3767 11198 c-28 -10 -29 -12 -23 -67 10 -90 66 -822 66 -858 l0 -33
-79 0 c-54 0 -81 4 -84 13 -3 6 -6 -15 -6 -48 -1 -46 2 -56 11 -47 7 7 43 12
89 12 l78 0 5 -52 c3 -29 7 -79 10 -110 l4 -57 -50 -17 c-32 -10 -52 -23 -55
-35 -5 -16 -15 -19 -67 -19 -33 0 -142 -5 -241 -10 -119 -6 -181 -6 -185 0 -4
6 -28 101 -54 213 -30 124 -54 207 -64 215 -22 17 -107 16 -122 -3 -10 -12 -7
-67 14 -272 l26 -258 -25 -254 c-19 -191 -23 -257 -14 -267 15 -18 113 -19
126 -1 6 6 32 101 59 210 27 110 51 202 54 207 3 4 113 3 245 -2 201 -9 242
-13 253 -27 7 -9 32 -21 55 -27 l42 -10 -2 -65 c-2 -35 -5 -88 -9 -116 l-5
-53 -79 0 c-65 0 -81 3 -89 18 -8 13 -10 1 -11 -47 0 -56 2 -62 13 -47 12 16
23 17 91 11 76 -7 77 -8 72 -34 -3 -14 -20 -223 -38 -463 -25 -339 -30 -440
-21 -449 15 -15 113 -23 132 -11 9 6 45 177 102 478 49 258 89 470 89 472 0 1
31 2 69 2 50 0 74 4 85 16 19 19 20 25 4 47 -9 11 -34 19 -75 23 -35 4 -63 9
-63 12 0 21 44 239 49 245 4 4 75 -5 157 -20 201 -37 431 -39 540 -5 154 47
219 139 164 229 -68 112 -291 155 -589 114 -85 -12 -182 -21 -216 -21 l-62 0
-22 108 c-11 59 -21 112 -21 119 0 8 23 13 68 15 63 3 67 5 70 27 6 39 -20 51
-93 44 -56 -5 -63 -4 -68 13 -3 11 -43 222 -88 469 -52 284 -87 456 -97 468
-17 19 -79 22 -125 5z m158 -1379 c7 -46 -9 -144 -24 -153 -3 -2 -6 50 -6 115
0 93 3 116 12 103 6 -8 14 -38 18 -65z m530 -160 c70 -16 305 -13 385 4 36 8
67 13 69 11 27 -26 -187 -58 -324 -50 -119 8 -207 26 -213 45 -3 9 1 11 14 7
11 -3 42 -10 69 -17z"/>
<path d="M2916 9911 c-3 -5 -1 -22 4 -37 13 -34 14 -168 1 -211 -10 -35 -6
-43 21 -43 48 0 71 177 33 255 -19 39 -47 56 -59 36z"/>
<path d="M2835 9880 c-3 -4 0 -31 7 -60 9 -40 9 -65 0 -107 -6 -31 -9 -59 -6
-64 9 -15 33 3 43 33 23 65 8 189 -24 202 -8 3 -17 1 -20 -4z"/>
<path d="M2757 9763 c1 -49 2 -90 3 -92 0 -2 7 2 15 9 32 27 28 161 -6 168
-11 2 -14 -14 -12 -85z"/>
</g>
</svg>
